<?xml version="1.0" standalone="no"?>
<!DOCTYPE svg PUBLIC "-//W3C//DTD SVG 20010904//EN"
 "http://www.w3.org/TR/2001/REC-SVG-20010904/DTD/svg10.dtd">
<svg version="1.0" xmlns="http://www.w3.org/2000/svg"
 width="407.000000pt" height="411.000000pt" viewBox="0 0 407.000000 411.000000"
 preserveAspectRatio="xMidYMid meet">

<g transform="translate(0.000000,411.000000) scale(0.100000,-0.100000)"
fill="#000000" stroke="none">
<path d="M514 3880 c-22 -5 -61 -18 -86 -30 -190 -89 -248 -306 -167 -622 77
-304 294 -713 577 -1092 46 -61 79 -113 75 -120 -4 -6 -39 -54 -78 -106 -275
-366 -495 -777 -570 -1066 -86 -331 -34 -545 156 -637 265 -129 791 44 1389
456 80 55 173 122 207 148 35 27 65 49 68 49 2 0 42 -29 87 -63 548 -421 1137
-676 1449 -628 143 23 227 81 283 200 28 60 31 77 34 183 7 205 -48 399 -198
703 -114 232 -248 445 -461 731 l-30 41 95 131 c320 437 524 840 582 1149 11
62 15 123 12 204 -4 107 -7 122 -36 182 -39 79 -101 137 -181 169 -80 32 -287
32 -413 0 -316 -79 -738 -303 -1129 -598 l-95 -72 -80 60 c-603 453 -1168 691
-1490 628z m251 -315 c193 -41 477 -171 735 -337 161 -104 330 -225 330 -237
0 -5 -37 -41 -82 -82 -138 -123 -363 -346 -495 -491 -69 -76 -128 -138 -132
-138 -11 1 -165 220 -250 355 -106 169 -241 442 -285 577 -58 177 -70 333 -28
357 25 15 127 13 207 -4z m2845 5 c28 -15 34 -83 16 -186 -41 -240 -207 -584
-448 -930 -117 -167 -122 -173 -133 -173 -5 0 -27 21 -48 47 -82 99 -349 372
-499 510 -87 80 -158 148 -158 152 0 13 165 131 325 234 251 162 553 302 734
342 70 15 186 17 211 4z m-1370 -917 c151 -135 395 -380 519 -522 l91 -104
-67 -76 c-201 -228 -497 -522 -669 -664 l-31 -26 -129 115 c-201 180 -416 399
-581 591 l-53 61 124 138 c133 150 419 435 554 553 73 63 86 71 100 59 9 -7
73 -63 142 -125z m-934 -1073 c113 -123 436 -436 512 -497 l24 -19 -114 -81
c-414 -297 -801 -483 -1053 -508 -86 -8 -126 4 -138 40 -16 45 7 198 48 324
69 214 263 566 462 839 l76 105 25 -29 c13 -16 84 -94 158 -174z m1878 10
c263 -381 428 -739 451 -980 3 -36 2 -78 -3 -95 -7 -25 -15 -31 -52 -38 -57
-11 -200 13 -328 55 -118 39 -420 189 -557 277 -93 60 -291 199 -342 239 l-22
17 77 68 c124 111 458 444 551 550 l86 99 22 -29 c13 -15 65 -89 117 -163z"/>
</g>
</svg>
